/* XPM */
static char * debian_xpm[] = {
"32 32 27 1",
" 	c #F6FFD5",
".	c #CB1861",
"+	c #CA1760",
"@	c #C9175F",
"#	c #CD1B64",
"$	c #D5216F",
"%	c #DA2676",
"&	c #DE297B",
"*	c #D3206C",
"=	c #D01D68",
"-	c #D82472",
";	c #EA348B",
">	c #E32E82",
",	c #E12C7F",
"'	c #CC1A63",
")	c #D21F6C",
"!	c #DF2A7C",
"~	c #E53084",
"{	c #E52F84",
"]	c #E83389",
"^	c #CF1D67",
"/	c #E42F83",
"(	c #D62270",
"_	c #CA185F",
":	c #E02B7D",
"<	c #DC2778",
"[	c #D01D67",
"              .+...+            ",
"           .@#$%&&%*#@.         ",
"         @@=&&-=.=;>%>=@        ",
"        .#,%.')%!~;{$];&++      ",
"       @=,^'&~%=^^^-/;;;>.+     ",
"      .$%@(,^@._   .@^>;;:@     ",
"     +^,+!%+@        ..>;;(_    ",
"     .>'-*.           @+>;].    ",
"    .%==<_    ..+'.@.  @#;;(.   ",
"    .&.>+    ..&:%%&^+  .!;/@   ",
"   .%$$=+   .#/*+..@^@  +=;;+   ",
"   +,.&@    @>$+    _    ';;#   ",
"   @,.&+   _={@          @;;^   ",
"   #%=).   .%&+          .;;#   ",
"   #~~=    .%&+         @*;]+   ",
"   #;;[    +$~@         +&;&+   ",
"   #;;[    @^;^+       .[];=.   ",
"   @];=@    @!>..     ..~;&_    ",
"   @,;%.    _']~#@+..@=~;,+     ",
"   .%;>@     +^~],%%<{;;&@      ",
"    #;;.      ..<~;;;]!^.       ",
"    .&;%_      +.@#[^+._        ",
"    +#;].                       ",
"     _%;&@                      ",
"      +>;(@                     ",
"      _'~]=+                    ",
"       ../]*@                   ",
"        ++:;&+.                 ",
"          @*~~-'@_              ",
"           ++(>],$.@@           ",
"             .@.$%&&=@          ",
"                ..+@@           "};
