/* XPM */
static char *exit[] = {
/* columns rows colors chars-per-pixel */
"32 32 43 1 ",
"  c None",
". c #DB3A3C",
"X c #DB3B3D",
"o c #DC3A3C",
"O c #DB3C3E",
"+ c #E13F40",
"@ c #E84645",
"# c #E1595B",
"$ c #FC5652",
"% c #FF5954",
"& c #E26364",
"* c #E46C6E",
"= c #E46D6E",
"- c #E46D6F",
"; c #E67677",
": c #E67678",
"> c #E77E7F",
", c #E87F81",
"< c #E88081",
"1 c #E88283",
"2 c #E98586",
"3 c #F88987",
"4 c #FF8E8B",
"5 c #EB8F91",
"6 c #EC9899",
"7 c #EEA0A1",
"8 c #EEA1A2",
"9 c #FDA6A4",
"0 c #F0ADAE",
"q c #FFAFAD",
"w c #F2B6B7",
"e c #FFC0BE",
"r c #F5C7C8",
"t c #F7D1D1",
"y c #FCEDED",
"u c #FCEEEE",
"i c #FEF7F7",
"p c #FEF8F8",
"a c #FEF8F9",
"s c #FEFAFA",
"d c #FFFDFD",
"f c #FFFEFE",
"g c #FFFFFF",
/* pixels */
"                                ",
"           %%%%%%%%%%           ",
"         %%%%%%%%%%%%%%         ",
"       %%%%%%%%%%%%%%%%%%       ",
"      %%%%%%%%%%%%%%%%%%%%      ",
"     %%%%%%%%%%%%%%%%%%%%%%     ",
"    %%%%%%%%%%%%%%%%%%%%%%%%    ",
"   %%%%%%%%%%%%%%%%%%%%%%%%%%   ",
"   %%%%%%4qqqqqqqqqq9$%%%%%%%   ",
"  %%%%%%%eggggggggggu+$%%%%%%%  ",
"  %%%%%%%eg7<<<<<<,au.+$%%%%%%  ",
" %%%%%%%%eg*.......au..+$%%%%%% ",
" %%%%%%%%eg*.......<>.#.+$%%%%% ",
" %%%%%%%%eg*.........0i*.+$%%%% ",
" %%%%%%%%eg*.........5gi*.+$%%% ",
" %%%%%%%%eg*...ruuuuuuggi*.+$%% ",
" %%%%%%%%eg*...taaaaaagga;..+$% ",
" %%%%%%%%eg*.........2ga:....+$ ",
" %%%%%%%%eg*.........wa:......+ ",
" %%%%%%%%eg*.......<>O&........ ",
" %%%%%%%%eg*.......au.........o ",
"  %%%%%%%eg7,,,,,,,au.........  ",
"  %%%%%%%eggggggggggu.........  ",
"   %%%%%%377777777776........   ",
"   %%%%%%%@.................o   ",
"    %%%%%%%@................    ",
"     %%%%%%%@..............     ",
"      %%%%%%%@............      ",
"       %%%%%%%@.........o       ",
"         %%%%%%@.......         ",
"           %%%%%@...o           ",
"                                "
};
