/* XPM */
static char *exit_1[] = {
/* columns rows colors chars-per-pixel */
"64 64 111 2 ",
"   c None",
".  c #DF4E5F",
"X  c #DF4F5F",
"o  c #DF505F",
"O  c #E04E5E",
"+  c #E04F5E",
"@  c #E04E5F",
"#  c #E14E5F",
"$  c #E04F5F",
"%  c #E14F5F",
"&  c #E0505E",
"*  c #E0505F",
"=  c #DF5060",
"-  c #E05060",
";  c #E05161",
":  c #E05262",
">  c #E15262",
",  c #E15363",
"<  c #E15463",
"1  c #E15564",
"2  c #E15565",
"3  c #E15665",
"4  c #E15766",
"5  c #E25968",
"6  c #E25A69",
"7  c #E25B6A",
"8  c #E25D6C",
"9  c #E35D6C",
"0  c #E35F6D",
"q  c #E46371",
"w  c #E46775",
"e  c #E56B78",
"r  c #E56B79",
"t  c #E56D7A",
"y  c #E56D7B",
"u  c #E6727E",
"i  c #E67480",
"p  c #E77582",
"a  c #E77682",
"s  c #E77683",
"d  c #E77884",
"f  c #E87D88",
"g  c #E87E8A",
"h  c #EA8691",
"j  c #EA8792",
"k  c #EA8893",
"l  c #EA8994",
"z  c #EA8A95",
"x  c #EB8B96",
"c  c #EB8D97",
"v  c #EB8E98",
"b  c #EB8F99",
"n  c #EC919B",
"m  c #ED97A0",
"M  c #ED99A2",
"N  c #ED9AA3",
"B  c #EE9EA7",
"V  c #EE9FA8",
"C  c #EEA0A9",
"Z  c #EEA1AA",
"A  c #EFA3AC",
"S  c #F0A7AF",
"D  c #F0A9B1",
"F  c #F1AFB6",
"G  c #F1B2B9",
"H  c #F2B3BA",
"J  c #F2B5BC",
"K  c #F2B7BE",
"L  c #F3B9BF",
"P  c #F3BAC0",
"I  c #F4BEC4",
"U  c #F4C1C7",
"Y  c #F4C2C7",
"T  c #F6C9CE",
"R  c #F6CBCF",
"E  c #F6CCD1",
"W  c #F6CDD1",
"Q  c #F6CDD2",
"!  c #F6CED2",
"~  c #F7D0D4",
"^  c #F7D1D5",
"/  c #F7D4D8",
"(  c #F8D5D9",
")  c #F8D7DB",
"_  c #F8D8DB",
"`  c #F8DADD",
"'  c #F9DCDF",
"]  c #F9DEE1",
"[  c #F9DFE2",
"{  c #FAE1E3",
"}  c #FAE1E4",
"|  c #FAE3E6",
" . c #FBE6E8",
".. c #FBE8EA",
"X. c #FBE9EB",
"o. c #FBEAEC",
"O. c #FBEBED",
"+. c #FCECED",
"@. c #FCEEEF",
"#. c #FCF1F2",
"$. c #FDF1F2",
"%. c #FDF2F3",
"&. c #FDF3F4",
"*. c #FDF5F6",
"=. c #FEF7F8",
"-. c #FEF8F9",
";. c #FEFCFC",
":. c #FFFCFC",
">. c #FFFDFD",
",. c #FFFEFE",
"<. c white",
/* pixels */
"                                                      $ * $ $ $ $ $ $ * $                                                       ",
"                                            $ $ $ $ $ $ $ $ $ $ $ $ $ $ $ $ $ $ $ -                                             ",
"                                        $ $ $ $ $ $ $ $ $ $ $ $ $ $ $ $ $ $ $ $ $ $ $ $                                         ",
"                                  X $ $ $ $ $ $ $ $ $ $ $ $ $ $ $ $ $ $ $ $ $ $ $ $ $ $ $ $ =                                   ",
"                                $ $ $ $ $ $ $ $ $ $ $ $ $ $ $ $ $ $ $ $ $ $ $ $ $ $ $ $ $ $ $ $                                 ",
"                            $ $ $ $ $ $ $ $ $ $ $ $ $ $ $ $ $ $ $ $ $ $ $ $ $ $ $ $ $ $ $ $ $ $ $ $                             ",
"                          $ $ $ $ $ $ $ $ $ $ $ $ $ $ $ $ $ $ $ $ $ $ $ $ $ $ $ $ $ $ $ $ $ $ $ $ $ $                           ",
"                      $ $ $ $ $ $ $ $ $ $ $ $ $ $ $ $ $ $ $ $ $ $ $ $ $ $ $ $ $ $ $ $ $ $ $ $ $ $ $ $ $ -                       ",
"                    $ $ $ $ $ $ $ $ $ $ $ $ $ $ $ $ $ $ $ $ $ $ $ $ $ $ $ $ $ $ $ $ $ $ $ $ $ $ $ $ $ $ $ $                     ",
"                  $ $ $ $ $ $ $ $ $ $ $ $ $ $ $ $ $ $ $ $ $ $ $ $ $ $ $ $ $ $ $ $ $ $ $ $ $ $ $ $ $ $ $ $ $ $                   ",
"                X $ $ $ $ $ $ $ $ $ $ $ $ $ $ $ $ $ $ $ $ $ $ $ $ $ $ $ $ $ $ $ $ $ $ $ $ $ $ $ $ $ $ $ $ $ $ $                 ",
"              $ $ $ $ $ $ $ $ $ $ $ $ $ $ $ $ $ $ $ $ $ $ $ $ $ $ $ $ $ $ $ $ $ $ $ $ $ $ $ $ $ $ $ $ $ $ $ $ $ $               ",
"              $ $ $ $ $ $ $ $ $ $ $ $ $ 2 7 7 7 7 7 7 7 7 7 7 7 7 7 7 7 7 7 7 7 7 $ $ $ $ $ $ $ $ $ $ $ $ $ $ $ $               ",
"            $ $ $ $ $ $ $ $ $ $ $ - m  .<.<.<.<.<.<.<.<.<.<.<.<.<.<.<.<.<.<.<.<.<.*.P 0 $ $ $ $ $ $ $ $ $ $ $ $ $ $             ",
"          $ $ $ $ $ $ $ $ $ $ $ $ H <.<.<.<.<.<.<.<.<.<.<.<.<.<.<.<.<.<.<.<.<.<.<.<.<. .0 $ $ $ $ $ $ $ $ $ $ $ $ $ X           ",
"          $ $ $ $ $ $ $ $ $ $ $ a <.<.<.<.<.<.#...................................<.<.<.J $ $ $ $ $ $ $ $ $ $ $ $ $ $           ",
"        $ $ $ $ $ $ $ $ $ $ $ $ F <.<.<.<.<.<.#.M - $ $ $ $ $ $ $ $ $ $ $ $ $ $ $ d <.<.#.$ $ $ $ $ $ $ $ $ $ $ $ $ $ $         ",
"      $ $ $ $ $ $ $ $ $ $ $ $ $ U <.<.<.<.<.<.<.<.{ g $ $ $ $ $ $ $ $ $ $ $ $ $ $ $ @.<.<.< $ $ $ $ $ $ $ $ $ $ $ $ $ $         ",
"      $ $ $ $ $ $ $ $ $ $ $ $ $ U <.<.<.<.<.<.<.<.<.<.R w $ $ $ $ $ $ $ $ $ $ $ $ $ ..<.<.2 $ $ $ $ $ $ $ $ $ $ $ $ $ $ $       ",
"      $ $ $ $ $ $ $ $ $ $ $ $ $ U <.<.<.<.<.<.<.<.<.<.<.<.H 7 $ $ $ $ $ $ $ $ $ $ $ ..<.<.2 $ $ $ $ $ $ $ $ $ $ $ $ $ $ $       ",
"    $ $ $ $ $ $ $ $ $ $ $ $ $ $ U <.<.<.<.<.<.<.<.<.<.<.<.<.@.n - $ $ $ $ $ $ $ $ $ ..<.<.2 $ $ $ $ $ $ $ $ $ $ $ $ $ $ $ $     ",
"    $ $ $ $ $ $ $ $ $ $ $ $ $ $ U <.<.<.<.<.<.<.<.<.<.<.<.<.<.<.R 2 $ $ $ $ $ $ $ $ ..<.<.2 $ $ $ $ $ $ $ $ $ $ $ $ $ $ $ $     ",
"  $ $ $ $ $ $ $ $ $ $ $ $ $ $ $ U <.<.<.<.<.<.<.<.<.<.<.<.<.<.<.<.H $ $ $ $ $ $ $ $ ..<.<.2 $ $ $ $ $ $ $ $ $ $ $ $ $ $ $ $ $   ",
"  $ $ $ $ $ $ $ $ $ $ $ $ $ $ $ U <.<.<.<.<.<.<.<.<.<.<.<.<.<.<.<.-.2 $ $ $ $ $ $ $ W <...$ $ $ $ $ $ $ $ $ $ $ $ $ $ $ $ $ $   ",
"  $ $ $ $ $ $ $ $ $ $ $ $ $ $ $ U <.<.<.<.<.<.<.<.<.<.<.<.<.<.<.<.<.t $ $ $ $ $ $ $ 7 v q $ k M < $ $ $ $ $ $ $ $ $ $ $ $ $ $   ",
"  $ $ $ $ $ $ $ $ $ $ $ $ $ $ $ U <.<.<.<.<.<.<.<.<.<.<.<.<.<.<.<.<.a $ $ $ $ $ $ $ $ $ $ a <.<.W < $ $ $ $ $ $ $ $ $ $ $ $ $   ",
"= $ $ $ $ $ $ $ $ $ $ $ $ $ $ $ U <.<.<.<.<.<.<.<.<.<.<.<.<.<.<.<.<.a $ $ $ $ $ $ $ $ $ $ t <.<.<.W < $ $ $ $ $ $ $ $ $ $ $ $   ",
"$ $ $ $ $ $ $ $ $ $ $ $ $ $ $ $ U <.<.<.<.<.<.<.<.<.<.<.<.<.<.<.<.<.a $ $ $ $ $ $ $ $ $ $ $ n <.<.<.W 2 $ $ $ $ $ $ $ $ $ $ $ $ ",
"$ $ $ $ $ $ $ $ $ $ $ $ $ $ $ $ U <.<.<.<.<.<.<.<.<.<.<.<.<.<.<.<.<.a - h C C C C C C C C C C ` <.<.<.W < $ $ $ $ $ $ $ $ $ $ o ",
"$ $ $ $ $ $ $ $ $ $ $ $ $ $ $ $ U <.<.<.<.<.<.<.<.<.<.<.<.<.<.<.<.<.a c <.<.<.<.<.<.<.<.<.<.<.<.<.<.<.<.S $ $ $ $ $ $ $ $ $ $ $ ",
"$ $ $ $ $ $ $ $ $ $ $ $ $ $ $ $ U <.<.<.<.<.<.<.<.<.<.<.<.<.<.<.<.<.a v <.<.<.<.<.<.<.<.<.<.<.<.<.<.<.<.D $ $ $ $ $ $ $ $ $ $ $ ",
"$ $ $ $ $ $ $ $ $ $ $ $ $ $ $ $ U <.<.<.<.<.<.<.<.<.<.<.<.<.<.<.<.<.a - l C C C C C C C C C C ( <.<.<.^ 2 $ $ $ $ $ $ $ $ $ $ $ ",
"$ $ $ $ $ $ $ $ $ $ $ $ $ $ $ $ U <.<.<.<.<.<.<.<.<.<.<.<.<.<.<.<.<.a $ $ $ $ $ $ $ $ $ $ $ l <.<.<./ 2 $ $ $ $ $ $ $ $ $ $ $ $ ",
"$ $ $ $ $ $ $ $ $ $ $ $ $ $ $ $ U <.<.<.<.<.<.<.<.<.<.<.<.<.<.<.<.<.a $ $ $ $ $ $ $ $ $ $ t <.<.<.^ 2 $ $ $ $ $ $ $ $ $ $ $ $ $ ",
"$ $ $ $ $ $ $ $ $ $ $ $ $ $ $ $ U <.<.<.<.<.<.<.<.<.<.<.<.<.<.<.<.<.a $ $ $ $ $ $ $ $ $ $ d <.<.^ 2 $ $ $ $ $ $ $ $ $ $ $ $ $ $ ",
"$ $ $ $ $ $ $ $ $ $ $ $ $ $ $ $ U <.<.<.<.<.<.<.<.<.<.<.<.<.<.<.<.<.a $ $ $ $ $ $ $ $ $ $ $ v B 2 $ $ $ $ $ $ $ $ $ $ $ $ $ $ o ",
"$ $ $ $ $ $ $ $ $ $ $ $ $ $ $ $ U <.<.<.<.<.<.<.<.<.<.<.<.<.<.<.<.<.a $ $ $ $ $ $ $ a U h $ $ $ $ $ $ $ $ $ $ $ $ $ $ $ $ $ $ $ ",
"  $ $ $ $ $ $ $ $ $ $ $ $ $ $ $ U <.<.<.<.<.<.<.<.<.<.<.<.<.<.<.<.<.a $ $ $ $ $ $ $ ] <.=.- $ $ $ $ $ $ $ $ $ $ $ $ $ $ $ $ $   ",
"  $ $ $ $ $ $ $ $ $ $ $ $ $ $ $ U <.<.<.<.<.<.<.<.<.<.<.<.<.<.<.<.<.a $ $ $ $ $ $ $ ..<.<.2 $ $ $ $ $ $ $ $ $ $ $ $ $ $ $ $ $   ",
"  $ $ $ $ $ $ $ $ $ $ $ $ $ $ $ U <.<.<.<.<.<.<.<.<.<.<.<.<.<.<.<.<.a $ $ $ $ $ $ $ ..<.<.2 $ $ $ $ $ $ $ $ $ $ $ $ $ $ $ $ $   ",
"  $ $ $ $ $ $ $ $ $ $ $ $ $ $ $ U <.<.<.<.<.<.<.<.<.<.<.<.<.<.<.<.<.a $ $ $ $ $ $ $ ..<.<.2 $ $ $ $ $ $ $ $ $ $ $ $ $ $ $ $ $   ",
"  $ $ $ $ $ $ $ $ $ $ $ $ $ $ $ U <.<.<.<.<.<.<.<.<.<.<.<.<.<.<.<.<.a $ $ $ $ $ $ $ ..<.<.2 $ $ $ $ $ $ $ $ $ $ $ $ $ $ $ $ $   ",
"    $ $ $ $ $ $ $ $ $ $ $ $ $ $ U <.<.<.<.<.<.<.<.<.<.<.<.<.<.<.<.<.a $ $ $ $ $ $ $ o.<.<.< $ $ $ $ $ $ $ $ $ $ $ $ $ $ $ $     ",
"    $ $ $ $ $ $ $ $ $ $ $ $ $ $ U <.<.<.<.<.<.<.<.<.<.<.<.<.<.<.<.<.a $ $ $ $ $ $ a <.<.#.$ $ $ $ $ $ $ $ $ $ $ $ $ $ $ $ $     ",
"      $ $ $ $ $ $ $ $ $ $ $ $ $ J <.<.<.<.<.<.<.<.<.<.<.<.<.<.<.<.<.} ' ' ' ' ' ] <.<.<.L $ $ $ $ $ $ $ $ $ $ $ $ $ $ $ $       ",
"      $ $ $ $ $ $ $ $ $ $ $ $ $ l <.<.<.<.<.<.<.<.<.<.<.<.<.<.<.<.<.<.<.<.<.<.<.<.<.<...0 $ $ $ $ $ $ $ $ $ $ $ $ $ $ $ $       ",
"      X $ $ $ $ $ $ $ $ $ $ $ $ - _ <.<.<.<.<.<.<.<.<.<.<.<.<.<.<.<.<.<.<.<.<.<.<.-.I 0 $ $ $ $ $ $ $ $ $ $ $ $ $ $ $ $         ",
"        $ $ $ $ $ $ $ $ $ $ $ $ $ 7 R <.<.<.<.<.<.<.<.<.<.<.<.<.<.<.g 7 7 7 7 7 7 - $ $ $ $ $ $ $ $ $ $ $ $ $ $ $ $ $ $         ",
"          $ $ $ $ $ $ $ $ $ $ $ $ $ $ g } <.<.<.<.<.<.<.<.<.<.<.<.<.a $ $ $ $ $ $ $ $ $ $ $ $ $ $ $ $ $ $ $ $ $ $ $ $           ",
"          $ $ $ $ $ $ $ $ $ $ $ $ $ $ $ - V *.<.<.<.<.<.<.<.<.<.<.<.r $ $ $ $ $ $ $ $ $ $ $ $ $ $ $ $ $ $ $ $ $ $ $ $           ",
"            $ $ $ $ $ $ $ $ $ $ $ $ $ $ $ $ 0 P <.<.<.<.<.<.<.<.<.&.- $ $ $ $ $ $ $ $ $ $ $ $ $ $ $ $ $ $ $ $ $ $ $             ",
"              $ $ $ $ $ $ $ $ $ $ $ $ $ $ $ $ $ u ( <.<.<.<.<.<.<.A $ $ $ $ $ $ $ $ $ $ $ $ $ $ $ $ $ $ $ $ $ $ $               ",
"              - $ $ $ $ $ $ $ $ $ $ $ $ $ $ $ $ $ - l o.<.<.<.<.H - $ $ $ $ $ $ $ $ $ $ $ $ $ $ $ $ $ $ $ $ $ $ X               ",
"                $ $ $ $ $ $ $ $ $ $ $ $ $ $ $ $ $ $ $ - l D C r $ $ $ $ $ $ $ $ $ $ $ $ $ $ $ $ $ $ $ $ $ $ $ $                 ",
"                  $ $ $ $ $ $ $ $ $ $ $ $ $ $ $ $ $ $ $ $ $ $ $ $ $ $ $ $ $ $ $ $ $ $ $ $ $ $ $ $ $ $ $ $ $ $                   ",
"                    * $ $ $ $ $ $ $ $ $ $ $ $ $ $ $ $ $ $ $ $ $ $ $ $ $ $ $ $ $ $ $ $ $ $ $ $ $ $ $ $ $ $ $                     ",
"                      $ $ $ $ $ $ $ $ $ $ $ $ $ $ $ $ $ $ $ $ $ $ $ $ $ $ $ $ $ $ $ $ $ $ $ $ $ $ $ $ $ X                       ",
"                          $ $ $ $ $ $ $ $ $ $ $ $ $ $ $ $ $ $ $ $ $ $ $ $ $ $ $ $ $ $ $ $ $ $ $ $ $ $                           ",
"                            X $ $ $ $ $ $ $ $ $ $ $ $ $ $ $ $ $ $ $ $ $ $ $ $ $ $ $ $ $ $ $ $ $ $ $                             ",
"                                $ $ $ $ $ $ $ $ $ $ $ $ $ $ $ $ $ $ $ $ $ $ $ $ $ $ $ $ $ $ $ $                                 ",
"                                    $ $ $ $ $ $ $ $ $ $ $ $ $ $ $ $ $ $ $ $ $ $ $ $ $ $ $ $                                     ",
"                                        $ $ $ $ $ $ $ $ $ $ $ $ $ $ $ $ $ $ $ $ $ $ $ $                                         ",
"                                            $ $ $ $ $ $ $ $ $ $ $ $ $ $ $ $ $ $ $ $                                             ",
"                                                      $ $ $ $ $ $ $ $ $ $                                                       "
};
