/* XPM */
static char * linux_xpm[] = {
"64 64 165 2",
"  	c None",
". 	c #000000",
"+ 	c #1C1C1C",
"@ 	c #FFFFFF",
"# 	c #E0E0E0",
"$ 	c #6D6D6D",
"% 	c #5C5C5B",
"& 	c #90908F",
"* 	c #E6E6E5",
"= 	c #7D7D7C",
"- 	c #747474",
"; 	c #DCDCDB",
"> 	c #ECECEC",
", 	c #FCFCFA",
"' 	c #626261",
") 	c #FAFAF8",
"! 	c #FAFAFA",
"~ 	c #454544",
"{ 	c #343434",
"] 	c #242424",
"^ 	c #EEEEEC",
"/ 	c #0C0C0C",
"( 	c #F4F4F2",
"_ 	c #535352",
": 	c #2C2C2B",
"< 	c #4A4A4A",
"[ 	c #CCCCCB",
"} 	c #7D6B3E",
"| 	c #BB8D03",
"1 	c #ECC003",
"2 	c #F6CE0F",
"3 	c #CFAC0D",
"4 	c #D7C878",
"5 	c #131313",
"6 	c #F3F3F1",
"7 	c #3D3D3D",
"8 	c #EFEFED",
"9 	c #C19D4E",
"0 	c #FAB500",
"a 	c #F7BD00",
"b 	c #F9CA03",
"c 	c #FDD510",
"d 	c #FFD80B",
"e 	c #F9D41A",
"f 	c #BCA840",
"g 	c #D5D0B5",
"h 	c #C4C4C3",
"i 	c #9B711E",
"j 	c #F1A400",
"k 	c #FFC000",
"l 	c #FFD92B",
"m 	c #FFD91C",
"n 	c #FFD803",
"o 	c #FED401",
"p 	c #EBB702",
"q 	c #2E2300",
"r 	c #4E3200",
"s 	c #DC9300",
"t 	c #FFDA36",
"u 	c #C79A04",
"v 	c #F4AD00",
"w 	c #7C5400",
"x 	c #9C6200",
"y 	c #F6CD07",
"z 	c #C38D01",
"A 	c #EB9B00",
"B 	c #362200",
"C 	c #1C1300",
"D 	c #A46B01",
"E 	c #E59B00",
"F 	c #F7D010",
"G 	c #CF8900",
"H 	c #C3881B",
"I 	c #8A857B",
"J 	c #9D6907",
"K 	c #B67D00",
"L 	c #B78C01",
"M 	c #D28B00",
"N 	c #D7971A",
"O 	c #A69575",
"P 	c #B4B4B2",
"Q 	c #585857",
"R 	c #A2A2A1",
"S 	c #A79B87",
"T 	c #AC6C02",
"U 	c #DC9900",
"V 	c #E59400",
"W 	c #B58B3F",
"X 	c #B2B1AC",
"Y 	c #BCBCBA",
"Z 	c #ABABAA",
"` 	c #C9C9C7",
" .	c #9E6D24",
"..	c #A7680A",
"+.	c #AA6E11",
"@.	c #A47B3A",
"#.	c #B9B9B7",
"$.	c #D4D4D3",
"%.	c #9E9E9D",
"&.	c #959594",
"*.	c #838382",
"=.	c #A97402",
"-.	c #715200",
";.	c #FDF8E7",
">.	c #080500",
",.	c #E5A000",
"'.	c #FFBD00",
").	c #D8D8D7",
"!.	c #DAA703",
"~.	c #1B1608",
"{.	c #CB8300",
"].	c #CAA863",
"^.	c #947402",
"/.	c #F6B200",
"(.	c #160E00",
"_.	c #AD833D",
":.	c #B18300",
"<.	c #0E0A00",
"[.	c #ECAB00",
"}.	c #ECA200",
"|.	c #C38400",
"1.	c #543400",
"2.	c #9B773B",
"3.	c #251700",
"4.	c #E6A900",
"5.	c #9D7A40",
"6.	c #845300",
"7.	c #EDEDED",
"8.	c #D59600",
"9.	c #321E00",
"0.	c #765319",
"a.	c #BD7A00",
"b.	c #623C00",
"c.	c #BC7600",
"d.	c #8C6819",
"e.	c #787877",
"f.	c #7D4D00",
"g.	c #B47200",
"h.	c #CDBEA3",
"i.	c #8D5A00",
"j.	c #E4DDD0",
"k.	c #A36600",
"l.	c #754D0B",
"m.	c #8C8C8B",
"n.	c #B06B00",
"o.	c #DD8F00",
"p.	c #935C00",
"q.	c #70706F",
"r.	c #D48500",
"s.	c #8B5600",
"t.	c #392200",
"u.	c #C77C00",
"v.	c #E18900",
"w.	c #C37600",
"x.	c #DC8600",
"y.	c #9B5E00",
"z.	c #744700",
"A.	c #2B1900",
"B.	c #905700",
"C.	c #6B4200",
"D.	c #4B2C00",
"E.	c #5D3800",
"F.	c #422600",
"G.	c #452800",
"H.	c #804D00",
"                                                          . . . . . .                                                           ",
"                                                      . . . . . . . . . .                                                       ",
"                                                  . . . . . . . . . . . . .                                                     ",
"                                                  . . . . . . . . . . . . . .                                                   ",
"                                                . . . . . . . . . . . . . . . .                                                 ",
"                                                . . . . . . . . . . . . . . . . .                                               ",
"                                              . . . . . . . . . . . . . . . . . .                                               ",
"                                              . . . . . . . . . . . . . . . . . . .                                             ",
"                                              . . . . . . . . . . . . . + . . . . .                                             ",
"                                              . . @ # . . . . . . $ @ % . . . . . .                                             ",
"                                              . @ @ @ & . . . . @ @ * @ = . . . . .                                             ",
"                                              . - ; > , % . . ' ) @ $ ! @ + . . . .                                             ",
"                                              . @ ~ { @ @ . ] = ^ / ] ~ ( _ . . . .                                             ",
"                                              . @ : / < @ . . ~ [ . . / [ % . . . .                                             ",
"                                              . $ - . } | 1 2 3 4 + . 5 6 7 . . . .                                             ",
"                                              . ] 8 9 0 a b c 2 d e f g h . . . . .                                             ",
"                                              . . i j 0 k b c l m n o o p q . . . .                                             ",
"                                              . r s j 0 k b l t d n o u v w . . . .                                             ",
"                                              . x s j 0 k y t m d y z A A B . . . . .                                           ",
"                                              . C D E 0 k y e F u G A A H . . . . . .                                           ",
"                                              . . I J K | L z M A A N O P Q . . . . .                                           ",
"                                              . . R S T M U E A V W X Y [ Z . . . . . .                                         ",
"                                              . . ` Y S  ...+.@.S Y h @ @ @ Q . . . . . .                                       ",
"                                            . . Q @ Y Y Y #.Y Y Y $.@ @ @ @ $.. . . . . .                                       ",
"                                            . . @ @ @ Y Y Y Y [ @ @ @ @ @ @ @ _ . . . . . .                                     ",
"                                          . . %.@ @ @ @ [ [ @ @ @ @ @ @ @ @ @ P . . . . . . .                                   ",
"                                        . . 7 @ @ @ @ @ @ @ @ @ @ @ @ @ @ @ @ @ . . . . . . .                                   ",
"                                      . . . P @ @ @ @ @ @ @ @ @ @ @ @ @ @ @ @ @ % . . . . . . .                                 ",
"                                    . . . . @ @ @ @ @ @ @ @ @ @ @ @ @ @ @ @ @ @ &.. . . . . . . .                               ",
"                                    . . . { @ @ @ @ @ @ @ @ @ @ @ @ @ @ @ @ @ @ @ . . . . . . . . .                             ",
"                                  . . . . ~ @ @ @ @ @ @ @ @ @ @ @ @ @ @ @ @ @ @ @ Z . . . . . . . .                             ",
"                                  . . . . Z @ @ @ @ @ @ @ @ @ @ @ @ @ @ @ @ @ @ @ @ ' . . ] . . . . .                           ",
"                                . . ] . ' @ @ @ @ @ @ @ @ @ @ @ @ @ @ @ @ @ @ @ @ @ @ . . . : . . . .                           ",
"                                . + . . @ @ @ @ @ @ @ @ @ @ @ @ @ @ @ @ @ @ @ @ @ @ @ $ . ~ / { . . . .                         ",
"                                . { . $ @ @ @ @ @ @ @ @ @ @ @ @ @ @ @ @ @ @ @ @ @ @ @ h + _ : : . . . .                         ",
"                              . . + . [ @ @ @ @ @ @ @ @ @ @ @ @ @ @ @ @ @ @ @ @ @ @ @ @ 5 . . / { . . .                         ",
"                              . ] . : @ @ @ @ @ @ @ @ @ @ @ @ @ @ @ @ @ @ @ @ @ @ @ @ @ { . . . 7 . . . .                       ",
"                            . . ] . *.@ @ @ @ @ @ @ @ @ @ @ @ @ @ @ @ @ @ @ @ @ @ @ @ @ % . . . 7 . . . .                       ",
"                            . . + . [ @ @ @ @ @ @ @ @ @ @ @ @ @ @ @ @ @ @ @ @ @ @ @ @ @ = . . . 7 . . . .                       ",
"                          . . . . . @ @ @ @ @ @ @ @ @ @ @ @ @ @ @ @ @ @ @ @ @ @ @ @ @ @ *.. . / { . . . .                       ",
"                          . . . . { @ @ @ @ @ @ @ @ @ @ @ @ @ @ @ @ @ @ @ @ @ @ @ @ @ @ *.. . ] . . . . .                       ",
"                          . . < ] _ @ @ @ @ @ @ @ @ @ @ @ @ @ @ @ @ @ @ @ @ @ @ @ @ @ @ = . . { . . . . . .                     ",
"                        . . . . 7 ' @ @ @ @ @ @ @ @ @ @ @ @ @ @ @ @ @ @ @ @ @ @ @ @ @ @ $ . . { . . . . .                       ",
"                          C =.-.: % @ @ @ @ @ @ @ @ @ @ @ @ @ @ @ @ @ @ @ @ @ @ @ @ ;.@ Q >.{ { : : : . .                       ",
"                          ,.'.'.z : ).@ @ @ @ @ @ @ @ @ @ @ @ @ @ @ @ @ @ @ @ @ @ @ k k !.C . . . . ] ~ ~.                      ",
"                        {.0 '.'.'.w 5 h @ @ @ @ @ @ @ @ @ @ @ @ @ @ @ @ @ @ @ @ @ ].k b !.. . . . . ] < ^.                      ",
"                        G '.'.'.'./.(.>.R @ @ @ @ @ @ @ @ @ @ @ @ @ @ @ @ @ @ @ @ _.'.k :.. . . . . / <.p [.                    ",
"              {.{.{.{.{.}.'.'.'.'.'.|.. . = @ @ @ @ @ @ @ @ @ @ @ @ @ @ @ @ @ @ @ _.0 k |.. . . . . >.:.k }.                    ",
"            {.,.0 0 0 0 '.'.'.'.'.'.0 1.. . Q @ @ @ @ @ @ @ @ @ @ @ @ @ @ @ @ @ ` 2.0 k E r . . . 3.K '.k 0                     ",
"            {.'.'.'.'.'.'.'.'.'.'.'.'.4.(.. . { @ @ @ @ @ @ @ @ @ @ @ @ @ @ @ ).` 5.'.k v s D 6.D U v k k k [.                  ",
"            G '.'.'.'.'.'.'.'.'.'.'.'.'.J . . . { @ @ @ @ @ @ @ @ @ @ @ @ @ @ 7.` 2.'.k 0 ,.U 8.U }.'.k k k '.                  ",
"            |.0 '.'.'.'.'.'.'.'.'.'.'.'.a 9.. . . Z @ @ @ @ @ @ @ @ @ @ @ @ @ @ ` 0.'.k k /.}.}.v '.k k k k k 0                 ",
"            a.v '.'.'.'.'.'.'.'.'.'.'.'.'.!.>.. . & @ @ @ @ @ @ @ @ @ @ @ @ @ @ - b.0 k k k '.'.k k k k k k k k '.v             ",
"            c.j '.'.'.'.'.'.'.'.'.'.'.'.'.a d.] Q @ @ @ @ @ @ @ @ @ @ @ @ @ @ e.. f./.k k k k k k k k k k k k k k '.a.          ",
"            g.v '.'.'.'.'.'.'.'.'.'.'.'.'.'.[.h.@ @ @ @ @ @ @ @ @ @ @ @ @ @ $ . >.i./.k k k k k k k k k k k k k k }.D           ",
"            a.'.'.'.'.'.'.'.'.'.'.'.'.'.'.'.'.=.j.@ @ @ @ @ @ @ @ @ @ @ @ ~ . . (.x 0 k k k k k k k k k k k k '.E k.            ",
"            U '.'.'.'.'.'.'.'.'.'.'.'.'.'.'.'.}.l.Y @ @ @ @ @ @ @ @ @ m./ . . . 3.n.0 k k k k k k k k '.0 j o.T p.              ",
"          D A '.'.'.'.'.'.'.'.'.'.'.'.'.'.'.'.j g.C ] q.%.#.h P m._ / . . . . . 9.c.'.k k k k k k k v V r.k.s.s.                ",
"          x s A j v 0 '.'.'.'.'.'.'.'.'.'.'.'.j {.9.. . . . . . . . . . . . . . t.u.0 k k k k k '.E v.g.f.f.                    ",
"            k.a.M A A A j v /.'.'.'.'.'.'.'.0 A u.9.. . . . . . . . . . . . . . t.w.V 0 '.'./.}.v.x.y.z.                        ",
"                  p.T a.M V A A }.v '.'.'.0 A A p.A..               . . . . . . B B.v.v.v.v.v.v.x.6.C.                          ",
"                          z.6.x a.V A A A A A {.D.                              A.D.y.x.v.v.v.w.z.                              ",
"                                  E.i.a.o.r.x D.                                  F.G.D.z.H.C.1.                                ",
"                                      D.D.G.F.                                        F.G.D.D.                                  "};
