/* XPM */
static char * tree_xpm[] = {
"32 32 121 2",
"  	c #F6FFD5",
". 	c #112B17",
"+ 	c #122018",
"@ 	c #112117",
"# 	c #123417",
"$ 	c #122818",
"% 	c #126215",
"& 	c #128F13",
"* 	c #108811",
"= 	c #0D5210",
"- 	c #121D18",
"; 	c #129312",
"> 	c #129B12",
", 	c #129412",
"' 	c #09780A",
") 	c #121B18",
"! 	c #127514",
"~ 	c #0F6611",
"{ 	c #122619",
"] 	c #126415",
"^ 	c #127D14",
"/ 	c #1B9F1B",
"( 	c #21A221",
"_ 	c #24A324",
": 	c #1CA01C",
"< 	c #0E800F",
"[ 	c #0D4D10",
"} 	c #127E13",
"| 	c #139C13",
"1 	c #159C15",
"2 	c #28A528",
"3 	c #0E8E0E",
"4 	c #0C5F0D",
"5 	c #124816",
"6 	c #26A426",
"7 	c #097C09",
"8 	c #0B720C",
"9 	c #126D14",
"0 	c #0B840B",
"a 	c #0A730A",
"b 	c #127014",
"c 	c #0C5B0E",
"d 	c #0F4013",
"e 	c #125316",
"f 	c #0E4712",
"g 	c #115C16",
"h 	c #0D890D",
"i 	c #0C540F",
"j 	c #103315",
"k 	c #124217",
"l 	c #194C15",
"m 	c #1A4316",
"n 	c #0F3D13",
"o 	c #342D14",
"p 	c #3E2B12",
"q 	c #127B14",
"r 	c #102717",
"s 	c #1C3716",
"t 	c #1A3017",
"u 	c #623B0E",
"v 	c #372713",
"w 	c #128213",
"x 	c #0C870C",
"y 	c #76430B",
"z 	c #1B4915",
"A 	c #80450A",
"B 	c #231C16",
"C 	c #156315",
"D 	c #1F1D17",
"E 	c #1E3016",
"F 	c #0F910F",
"G 	c #0B680C",
"H 	c #1C2A17",
"I 	c #954E07",
"J 	c #513610",
"K 	c #995006",
"L 	c #181718",
"M 	c #282015",
"N 	c #522F0E",
"O 	c #204115",
"P 	c #122F17",
"Q 	c #282416",
"R 	c #B95E02",
"S 	c #332A14",
"T 	c #1A1818",
"U 	c #AC5801",
"V 	c #773E07",
"W 	c #804206",
"X 	c #0B800B",
"Y 	c #163913",
"Z 	c #723F0C",
"` 	c #B65D02",
" .	c #A05305",
"..	c #AA5501",
"+.	c #9A4D01",
"@.	c #3C2712",
"#.	c #145616",
"$.	c #0C7B0C",
"%.	c #1F1A17",
"&.	c #BC6001",
"*.	c #A45201",
"=.	c #864504",
"-.	c #924D07",
";.	c #BF6101",
">.	c #9E4F01",
",.	c #64360B",
"'.	c #241B16",
").	c #6E3D0C",
"!.	c #1B1717",
"~.	c #61350B",
"{.	c #211B17",
"].	c #362514",
"^.	c #2B1F15",
"/.	c #B15901",
"(.	c #8B4704",
"_.	c #3B2714",
":.	c #332213",
"<.	c #6F3B09",
"[.	c #BC5F01",
"}.	c #151518",
"|.	c #1C1918",
"                            . + @ #                             ",
"                          $ % & * = .                           ",
"                        - ; > > > , ' +                         ",
"              - - ) ) ) ! > > > > > , ~ ) ) - { .               ",
"            - ] , > & ^ > / ( _ : > > > ^ & > < [ @             ",
"          - } > | / : 1 / 2 2 2 2 ( > > > > > > 3 4 +           ",
"          5 > 1 6 2 2 2 2 2 2 2 2 2 1 > > > > > > 7 8           ",
"        + 9 > ( 2 2 2 2 2 2 2 2 2 2 1 > > > > > > 0 a #         ",
"        + b > 6 2 2 2 2 2 2 2 2 2 ( > > > > > > > 0 c {         ",
"          5 > ( 2 2 2 2 2 2 2 2 6 1 > > > > > > > 7 d           ",
"        ) e 1 _ 2 2 2 2 2 2 2 6 1 > > > > > > > > 0 f -         ",
"      - g / 2 2 2 2 2 2 2 2 6 1 > > > > > > > > > > h [ +       ",
"    - ] > 6 2 2 2 2 2 2 2 6 1 > > > > > > > > > > > > 0 i +     ",
"    ) , 1 2 2 2 2 2 2 2 _ 1 > > > > > > > > > > > > > 3 ' -     ",
"    # > 1 2 2 2 2 2 2 ( > > > > > > > > > > > > > > > , 7 j     ",
"    k > > : 2 2 2 6 / > > > > > l m , > > > > > > > > > 7 n     ",
"    { > > > / ( : | > > > > > ^ o p q > > > > > > > > , 7 r     ",
"    - ! > > > > > > , s t ; > ] u v w & , > > > > > > x 4 @     ",
"      - w > > > > > q o y t > z A B C D E > > > > > F G +       ",
"        ) 5 b , > > > H I J l E K L M N O > > > , ~ d -         ",
"            - P > > > q Q R S T U V W D ; > , X P @             ",
"              - 5 ; > > Y Z `  ...+.@.#.> > $.d +               ",
"                - - . @ + %.` &.*.=.%.- - . - +                 ",
"                          B -.;.>.,.'.                          ",
"                            ).;.>.N                             ",
"                          !.Z ;.*.~.{.                          ",
"                          ].K &...V ^.                          ",
"                            &.&./.(.{.                          ",
"                          _.&.&.R +.:.                          ",
"                        %.A &.&.&...<.'.                        ",
"                        {.&.&.&.&.[.+.{.                        ",
"                      T }.T T T T T |.}.%.                      "};
