/* XPM */
static char *tux[] = {
/* columns rows colors chars-per-pixel */
"64 64 148 2 ",
"   c None",
".  c #232323",
"X  c #263137",
"o  c #2D3636",
"O  c #263238",
"+  c #2A363B",
"@  c #2C393E",
"#  c #333333",
"$  c #393E34",
"%  c #343B34",
"&  c #3C4133",
"*  c #5B552C",
"=  c #4C4C33",
"-  c #6A5E29",
";  c #665C29",
":  c #6F6225",
">  c #6C6028",
",  c #7B6A25",
"<  c #7E6B33",
"1  c #2F3A40",
"2  c #313D43",
"3  c #364147",
"4  c #374248",
"5  c #3A464B",
"6  c #3E494E",
"7  c #3A4B53",
"8  c #454545",
"9  c #575947",
"0  c #424C52",
"q  c #475157",
"w  c #485257",
"e  c #4A555A",
"r  c #655F4C",
"t  c #6E6F4B",
"y  c #636553",
"u  c #455A64",
"i  c #4C5E64",
"p  c #555F63",
"a  c #576065",
"s  c #586267",
"d  c #5F696E",
"f  c #5A6468",
"g  c #696F6B",
"h  c #646A65",
"j  c #77746B",
"k  c #636C71",
"l  c #677075",
"z  c #6C7173",
"x  c #6D767A",
"c  c #6F787C",
"v  c #816E24",
"b  c #867223",
"n  c #897F4E",
"m  c #9E811D",
"M  c #BE8E05",
"N  c #B08305",
"B  c #BD910F",
"V  c #A2831D",
"C  c #AC8C1F",
"Z  c #94863C",
"A  c #A28D36",
"S  c #A9943D",
"D  c #C89605",
"F  c #CA9806",
"G  c #C29105",
"H  c #C49A15",
"J  c #D5A106",
"K  c #DCA606",
"L  c #D3A413",
"P  c #D9A913",
"I  c #D1A51E",
"U  c #DBAC1A",
"Y  c #D3A91D",
"T  c #E3AB06",
"R  c #E2AD0D",
"E  c #EAB106",
"W  c #E7B00C",
"Q  c #ECB40B",
"!  c #F5B907",
"~  c #FBBE07",
"^  c #F1B70A",
"/  c #F4BA09",
"(  c #FABD08",
")  c #EBB611",
"_  c #C19F26",
"`  c #D8AD2B",
"'  c #FFC107",
"]  c #FEC10A",
"[  c #FEC311",
"{  c #FDC61F",
"}  c #F0C53E",
"|  c #8B8664",
" . c #A59864",
".. c #B7A671",
"X. c #FACC41",
"o. c #F9D055",
"O. c #F8D058",
"+. c #F7D467",
"@. c #F7D56E",
"#. c #F6D673",
"$. c #F6D778",
"%. c #F6D87A",
"&. c #767E82",
"*. c #798185",
"=. c #77868E",
"-. c #7F878B",
";. c #868788",
":. c #82898C",
">. c #98968F",
",. c #97998F",
"<. c #868E92",
"1. c #8A9195",
"2. c #8E9599",
"3. c #90979B",
"4. c #949B9F",
"5. c #9C9E9F",
"6. c #969CA0",
"7. c #9FA5A9",
"8. c #9CA2A6",
"9. c #A1A7AB",
"0. c #A4ABAE",
"q. c #A7ADB1",
"w. c #A8AEB2",
"e. c #AAB1B4",
"r. c #B1B6BA",
"t. c #B4B9BC",
"y. c #F3DE99",
"u. c #F2E0A6",
"i. c #F0E5BD",
"p. c #BDC2C5",
"a. c #C2C6C9",
"s. c #C6CACC",
"d. c #CACFD2",
"f. c #CDD1D4",
"g. c #D1D4D7",
"h. c #D3D7D9",
"j. c #D6DADD",
"k. c #D8DCDF",
"l. c #EEE6C8",
"z. c #EFE8CC",
"x. c #EFE9D2",
"c. c #DBDFE1",
"v. c #DDE1E3",
"b. c #E1E4E7",
"n. c #E4E7E9",
"m. c #EAEDEE",
"M. c #E9EAE7",
"N. c #ECEFF1",
/* pixels */
"                                                                                                                                ",
"                                                                                                                                ",
"                                                                                                                                ",
"                                                                                                                                ",
"                                                                                                                                ",
"                                                                                                                                ",
"                                                                                                                                ",
"                                                                                                                                ",
"                                                            X X O O O O                                                         ",
"                                                        O O O O O O O O O O                                                     ",
"                                                      O O O O O O O O O O O O                                                   ",
"                                                      O O O O O O O O O O O O                                                   ",
"                                                    O O O O O O O O O O O O O O                                                 ",
"                                                    O O O O O O O O O O O O O O                                                 ",
"                                                    O O 4 1 O O O 6 &.l @ O O O                                                 ",
"                                                    O q p.8.+ O 4 q.N.n.c O O O X                                               ",
"                                                    @ e.5.s.k O k g.;.t.p.5 O O O                                               ",
"                                                    5 t.. z <.O *.;.. 8 f.w O O O                                               ",
"                                                    3 r.# r  .; | j . # a.6 O O X                                               ",
"                                                    + :...I R / L ` < >.2.@ O O O                                               ",
"                                                    % b ] ~ ' ' ! ' ' W V & O O O                                               ",
"                                                    : W ' ' ' ' ' ~ M M W * O O O                                               ",
"                                                    - B J T E T F N T ' } y O O O O                                             ",
"                                                    o n U D G F K ! [ o.l.1.O O O O                                             ",
"                                                    O c i.X.] ] { o.z.N.N.j.@ O O O X                                           ",
"                                                    O -.N.x.u.u.i.M.N.N.N.N.s O O O O                                           ",
"                                                  O @ w.N.N.N.N.N.N.N.N.N.N.w.@ O O O O                                         ",
"                                                O O w f.N.N.N.N.N.N.N.N.N.N.g.e O O O O                                         ",
"                                              O O O <.N.N.N.N.N.N.N.N.N.N.N.N.1.O O O O O                                       ",
"                                              O O 1 h.N.N.N.N.N.N.N.N.N.N.N.N.f.O O O O O O                                     ",
"                                            O O @ 2.N.N.N.N.N.N.N.N.N.N.N.N.N.N.l + 1 O O O O                                   ",
"                                            O O a j.N.N.N.N.N.N.N.N.N.N.N.N.N.N.r.3 e 5 O O O                                   ",
"                                          O 2 3 d.N.N.N.N.N.N.N.N.N.N.N.N.N.N.N.b.k @ &.0 O O O                                 ",
"                                        O O p x N.N.N.N.N.N.N.N.N.N.N.N.N.N.N.N.N.7.O 4 6.2 O O                                 ",
"                                        O 0 x t.N.N.N.N.N.N.N.N.N.N.N.N.N.N.N.N.N.j.O O 3.f O O O                               ",
"                                        O 4.k k.N.N.N.N.N.N.N.N.N.N.N.N.N.N.N.N.N.m.2 O :.&.O O O                               ",
"                                      O + 9.-.N.N.N.N.N.N.N.N.N.N.N.N.N.N.N.N.N.N.N.p O <.:.O O O                               ",
"                                      O 1 7.0.N.N.N.N.N.N.N.N.N.N.N.N.N.N.N.N.N.N.N.d O e.&.O O O                               ",
"                                      O 4 p.d.N.N.N.N.N.N.N.N.N.N.N.N.N.N.N.N.N.N.N.x 5 j.s O O O                               ",
"                                      O 2 p.m.N.N.N.N.N.N.N.N.N.N.N.N.N.N.N.N.N.N.N.&.2.s.0 O O O                               ",
"                                    L L v g v.N.N.N.N.N.N.N.N.N.N.N.N.N.N.N.N.N.N.N.r.k.1.O O O O                               ",
"                                    ' ' ^ v *.v.N.N.N.N.N.N.N.N.N.N.N.N.N.N.N.m.@.$.e.=.i 7 @ O o                               ",
"                                  ' ' ' ' ( * p g.N.N.N.N.N.N.N.N.N.N.N.N.N.N.y.' ' S u u u t L '                               ",
"                                ' ' ' ' ' ' H & a a.N.N.N.N.N.N.N.N.N.N.N.N.N.%.' ' _ u u i Y ' ' '                             ",
"                          ' ' ' ' ' ' ' ' ' ' V O 2 w.n.N.N.N.N.N.N.N.N.N.N.N.#.' ' ) A Z U ' ' ' '                             ",
"                        ' ' ' ' ' ' ' ' ' ' ' / = O 4 2.N.N.N.N.N.N.N.N.N.N.N.#.' ' ' ' ' ' ' ' ' '                             ",
"                        ' ' ' ' ' ' ' ' ' ' ' ' H $ O O a.N.N.N.N.N.N.N.N.N.N.+.' ' ' ' ' ' ' ' ' ' '                           ",
"                          ' ' ' ' ' ' ' ' ' ' ' / , O + s.N.N.N.N.N.N.N.N.N.m.O.' ' ' ' ' ' ' ' ' ' ' '                         ",
"                          ' ' ' ' ' ' ' ' ' ' ' ' Q 9 r.N.N.N.N.N.N.N.N.N.c.,.I ' ' ' ' ' ' ' ' ' ' ' ' '                       ",
"                          ' ' ' ' ' ' ' ' ' ' ' ' ' C h d.N.N.N.N.N.N.m.w.d = P ' ' ' ' ' ' ' ' ' ' ' ' '                       ",
"                        ' ' ' ' ' ' ' ' ' ' ' ' ' ' ( , @ a 4.e.r.w.&.0 O O * Q ' ' ' ' ' ' ' ' ' ' '                           ",
"                        ' ' ' ' ' ' ' ' ' ' ' ' ' ' ' H O O O @ 1 + O O O O ; ( ' ' ' ' ' ' ' ' ' '                             ",
"                        ' ' ' ' ' ' ' ' ' ' ' ' ' ' ' R O O O O O O O O O O > ' ' ' ' ' ' ' ' '                                 ",
"                            ' ' ' ' ' ' ' ' ' ' ' ' ' /                     m ] ' ' ' ' ' ' '                                   ",
"                                    ' ' ' ' ' ' ' ' ' '                       ' ' ' ' ' ' '                                     ",
"                                          ' ' ' ' ' '                           ' ' ' '                                         ",
"                                                                                                                                ",
"                                                                                                                                ",
"                                                                                                                                ",
"                                                                                                                                ",
"                                                                                                                                ",
"                                                                                                                                ",
"                                                                                                                                ",
"                                                                                                                                "
};
