/* XPM */
static char *tux[] = {
/* columns rows colors chars-per-pixel */
"32 32 146 2 ",
"   c None",
".  c #394949",
"X  c #394A4A",
"o  c #394B4B",
"O  c #3A4A4A",
"+  c #3A4B4B",
"@  c #394C4C",
"#  c #394D4D",
"$  c #3A4C4C",
"%  c #3A4D4D",
"&  c #3A4E4E",
"*  c #3B4E4E",
"=  c #3A4F4F",
"-  c #3B4F4F",
";  c #3C4E4E",
":  c #395050",
">  c #3A5050",
",  c #3A5151",
"<  c #3B5252",
"1  c #3B5353",
"2  c #3D5351",
"3  c #3B5454",
"4  c #3B5757",
"5  c #3C5656",
"6  c #3C5757",
"7  c #3B5959",
"8  c #3C5858",
"9  c #3C5959",
"0  c #3E5A58",
"q  c #3C5A5A",
"w  c #3D5A5A",
"e  c #3E5A5A",
"r  c #3E5B5B",
"t  c #3F5C5C",
"y  c #535543",
"u  c #415B57",
"i  c #425B57",
"p  c #445D57",
"a  c #415C58",
"s  c #425E5E",
"d  c #445E5D",
"f  c #59614B",
"g  c #44605F",
"h  c #726D44",
"j  c #746F45",
"k  c #446060",
"l  c #496464",
"z  c #4A6565",
"x  c #556D6D",
"c  c #566E6C",
"v  c #556E6E",
"b  c #586F6D",
"n  c #58706E",
"m  c #59716F",
"M  c #87783E",
"N  c #BF8E2A",
"B  c #AB8531",
"V  c #AC8631",
"C  c #F88604",
"Z  c #F98704",
"A  c #F78C03",
"S  c #F88903",
"D  c #F88B02",
"F  c #F88B03",
"G  c #F98B03",
"H  c #F98D02",
"J  c #F98C03",
"K  c #F88804",
"L  c #F98804",
"P  c #F98907",
"I  c #F99102",
"U  c #F99003",
"Y  c #FA9202",
"T  c #FA9701",
"R  c #F99403",
"E  c #F99702",
"W  c #F99801",
"Q  c #FA9801",
"!  c #F99802",
"~  c #FA9802",
"^  c #F89805",
"/  c #FBA015",
"(  c #FBA615",
")  c #F9A516",
"_  c #C69027",
"`  c #C39029",
"'  c #C69128",
"]  c #D39523",
"[  c #FAA840",
"{  c #F5B65F",
"}  c #E7AE62",
"|  c #F9B760",
" . c #FBC36D",
".. c #6B8181",
"X. c #738383",
"o. c #778784",
"O. c #748989",
"+. c #798B88",
"@. c #9AA5A0",
"#. c #9BA5A0",
"$. c #A0A9A3",
"%. c #A2ADA7",
"&. c #A3ADA7",
"*. c #AAACA1",
"=. c #A5AFA9",
"-. c #B4B4A5",
";. c #B8B5A6",
":. c #ACB4B4",
">. c #ACB8B8",
",. c #ACB9B9",
"<. c #AFBBBB",
"1. c #B1B8B2",
"2. c #B3BAB4",
"3. c #BBC0BA",
"4. c #BEC2BC",
"5. c #FACF89",
"6. c #FBCF8F",
"7. c #CBC9BF",
"8. c #D2C8B3",
"9. c #FBD6A5",
"0. c #E9D8B8",
"q. c #C4C7C0",
"w. c #C4C8C1",
"e. c #D4D4CC",
"r. c #DDDCD3",
"t. c #E9DDC6",
"y. c #F6E5C7",
"u. c #FAE8C9",
"i. c #FBEBD2",
"p. c #FCEED8",
"a. c #E4E8E8",
"s. c #E5E9E9",
"d. c #EAEDED",
"f. c #F3EDE4",
"g. c #F2EEE4",
"h. c #F4EEE5",
"j. c #F6F0E7",
"k. c #F7F1E7",
"l. c #FCF2E2",
"z. c #FBF3E6",
"x. c #FAF4EA",
"c. c #FCF4E8",
"v. c #FCF5E9",
"b. c #FCF5EB",
"n. c #F4F5F5",
"m. c #F5F7F7",
/* pixels */
"                            9 3 % % 1                           ",
"                        9 9 9 9 9 1 . %                         ",
"                      9 9 9 9 9 9 9 % . .                       ",
"                      9 9 v s 9 9 s v . . %                     ",
"                    9 9 <.d.a.l l a.d.:.. %                     ",
"                    9 9 m.k <.....<.k m.. .                     ",
"                    9 9 O.9 9 p p 9 9 X.. .                     ",
"                    9 9 9 M ] ) ) ] M 2 . .                     ",
"                    9 9 j ) ) ) ) ) ) h . . %                   ",
"                  9 9 9 i _ ) ) ) ) ' a 1 . .                   ",
"                9 9 9 9 9 i N ) ) ` i 9 9 1 . .                 ",
"              9 9 9 9 9 9 9 i V B i 9 9 9 9 1 . .               ",
"            9 9 9 9 9 9 9 9 9 9 9 9 9 9 9 9 9 1 . .             ",
"          9 9 9 9 9 9 9 9 9 9 9 9 9 9 9 9 9 9 9 1 . .           ",
"        9 9 9 9 9 9 9 9 9 m &.q.q.&.m 9 9 9 9 9 9 % . .         ",
"        9 9 9 9 9 9 9 t =.x.b.b.b.b.x.&.9 9 9 9 9 5 . . %       ",
"      9 9 9 9 9 9 9 9 4.b.b.b.b.b.b.b.b.3.9 9 9 9 9 1 . .       ",
"      9 9 9 9 9 9 9 #.b.b.b.b.b.b.b.b.b.b.#.9 9 9 9 3 . . %     ",
"    9 9 9 9 9 9 9 v j.b.b.b.b.b.b.b.b.b.b.j.b 9 % 1 9 % . .     ",
"    9 9 7   9 9 9 2.b.b.b.b.b.b.b.b.b.b.b.b.1.5 . . 1 1 . .     ",
"    9 9     9 9 g g.b.b.b.b.b.b.b.b.b.b.b.b.g.d . . %   % . %   ",
"            9 9 +.b.b.b.b.b.b.b.b.b.b.b.b.b.b.o.. . %           ",
"            9 9 &.b.b.b.b.b.b.b.b.b.b.b.b.b.b.$.. .             ",
"            9 9 w.b.b.b.b.b.b.b.b.b.b.b.b.b.b.7.. .             ",
"            9 9 e.b.b.b.b.b.b.b.b.b.b.b.b.b.b.t.. %             ",
"              9 r.b.b.b.b.b.b.b.b.b.b.b.b.b.l.y.. ;             ",
"              f } 9.b.b.b.b.b.b.b.b.b.b.b.b.6.{ y               ",
"              E G C [ b.b.b.b.b.b.b.b.b.b. .E P P               ",
"            ! ! E C C | b.b.b.b.b.b.b.b.5.! ! Y C C             ",
"          ! ! ! ! H C P b.b.b.b.b.b.b.i./ ! ! E C C A           ",
"          ! ! ! ! Y C C 8.h.b.b.z.p.u.0.^ ! ! ! G C G           ",
"            ! ! ! Y G         -.;.*.      ! ! ! H G             "
};
