/* XPM */
static char *tux_7[] = {
/* columns rows colors chars-per-pixel */
"70 70 152 2 ",
"   c None",
".  c #232323",
"X  c #292928",
"o  c #32312E",
"O  c #253137",
"+  c #2D3637",
"@  c #263238",
"#  c #29353B",
"$  c #2D393E",
"%  c #303030",
"&  c #343B35",
"*  c #3B433F",
"=  c #57522D",
"-  c #454731",
";  c #4A4A32",
":  c #6E6128",
">  c #7F6E2A",
",  c #2F3A40",
"<  c #323D43",
"1  c #364146",
"2  c #364349",
"3  c #3A454B",
"4  c #3D484E",
"5  c #3A4447",
"6  c #3E5159",
"7  c #424C52",
"8  c #475257",
"9  c #485357",
"0  c #4B555A",
"q  c #4E5A5E",
"w  c #535454",
"e  c #505A5F",
"r  c #5F645B",
"t  c #6D6845",
"y  c #6D7050",
"u  c #455A64",
"i  c #495C62",
"p  c #525C61",
"a  c #4F626B",
"s  c #576166",
"d  c #5C6467",
"f  c #5D666B",
"g  c #656667",
"h  c #606A6F",
"j  c #6A6E64",
"k  c #636C71",
"l  c #66777F",
"z  c #6D767A",
"x  c #71797E",
"c  c #7A7C7D",
"v  c #997E1E",
"b  c #806D24",
"n  c #8E7622",
"m  c #927920",
"M  c #857D44",
"N  c #9E811D",
"B  c #B28505",
"V  c #A9891A",
"C  c #B08C17",
"Z  c #B59017",
"A  c #BA9315",
"S  c #B49018",
"D  c #96863C",
"F  c #B79428",
"G  c #B49321",
"H  c #AA9337",
"J  c #BB9E3F",
"K  c #C08F05",
"L  c #C39206",
"P  c #CD9A07",
"I  c #C99809",
"U  c #CD9F13",
"Y  c #C39A14",
"T  c #DDAB0E",
"R  c #D7A309",
"E  c #D5A511",
"W  c #E9AF06",
"Q  c #E2AE0D",
"!  c #E4AC06",
"~  c #EDB307",
"^  c #EBB209",
"/  c #F1B607",
"(  c #F5B907",
")  c #FBBE07",
"_  c #F1B70B",
"`  c #F4BA0A",
"'  c #FBBE08",
"]  c #E5AF11",
"[  c #E1B016",
"{  c #F0BA19",
"}  c #C19F26",
"|  c #CAA636",
" . c #FFC107",
".. c #FEC10A",
"X. c #FEC415",
"o. c #FCC92D",
"O. c #FCC726",
"+. c #FBCA32",
"@. c #9C8B4B",
"#. c #9C8C58",
"$. c #BBA65D",
"%. c #9E926B",
"&. c #928B75",
"*. c #D7B345",
"=. c #F9CF4D",
"-. c #F9D156",
";. c #F6D15E",
":. c #F5D46C",
">. c #F6D87B",
",. c #757E82",
"<. c #778084",
"1. c #7D858A",
"2. c #81898D",
"3. c #88898A",
"4. c #858D91",
"5. c #899195",
"6. c #92999D",
"7. c #939496",
"8. c #AFAC96",
"9. c #989FA3",
"0. c #959CA0",
"q. c #9CA4A5",
"w. c #9EA4A8",
"e. c #A5AAAD",
"r. c #A4A9AB",
"t. c #B8B6A6",
"y. c #A7ADB1",
"u. c #A8AFB2",
"i. c #ACB2B5",
"p. c #B5B8BA",
"a. c #F4DB8F",
"s. c #C2C2B8",
"d. c #F0E5BF",
"f. c #BABFC2",
"g. c #BCC2C5",
"h. c #C1C6C9",
"j. c #C2C6C8",
"k. c #D0D0C7",
"l. c #C9CED1",
"z. c #CDD2D4",
"x. c #D0D4D6",
"c. c #D2D6D8",
"v. c #D6DADC",
"b. c #D9DDDF",
"n. c #EFE8CD",
"m. c #DBDFE1",
"M. c #DDE1E3",
"N. c #E1E4E6",
"B. c #E3E7E9",
"V. c #E6E9EB",
"C. c #EAEDEE",
"Z. c #ECEFF1",
/* pixels */
"                                                                                                                                            ",
"                                                                                                                                            ",
"                                                                                                                                            ",
"                                                                                                                                            ",
"                                                                                                                                            ",
"                                                                                                                                            ",
"                                                                                                                                            ",
"                                                                                                                                            ",
"                                                                                                                                            ",
"                                                                @ @ @ @ @ @ @ @                                                             ",
"                                                              @ @ @ @ @ @ @ @ @ @                                                           ",
"                                                            @ @ @ @ @ @ @ @ @ @ @ @                                                         ",
"                                                          O @ @ @ @ @ @ @ @ @ @ @ @ @                                                       ",
"                                                          @ @ @ @ @ @ @ @ @ @ @ @ @ @                                                       ",
"                                                          @ @ @ @ @ @ @ @ @ @ @ @ @ @ O                                                     ",
"                                                        O @ @ @ @ @ @ @ @ < < @ @ @ @ @                                                     ",
"                                                        @ # q 1.0 @ @ $ x v.m.4.$ @ @ @                                                     ",
"                                                        @ 1 g.m.f.3 @ 8 l.v.m.M.0 @ @ @                                                     ",
"                                                        @ s i.w p.k @ k j.w g x.<.@ @ @                                                     ",
"                                                        @ z 7.. c ,.@ z 3.. X r.4.@ @ @                                                     ",
"                                                          p e.o #.J v @.&.X % i.k @ @ @                                                     ",
"                                                          < 8.*.] ^ ) R { F %.t.5 @ @ @ @                                                   ",
"                                                          = U  .)  . .(  . .~ U : @ @ @ @                                                   ",
"                                                          A '  . . . . .' P B W C @ @ @ @                                                   ",
"                                                          C I ! / / ~ R B I ) ..$.@ @ @ @                                                   ",
"                                                          ; | I K L L I ~  .+.>.k.4 @ @ @ @                                                 ",
"                                                          < t.;._ / (  .X.:.n.C.N.x @ @ @ @                                                 ",
"                                                        @ < g.C.a.-.=.>.n.Z.Z.Z.Z.i.< @ @ @ @                                               ",
"                                                        @ 2 v.Z.Z.Z.Z.Z.Z.Z.Z.Z.Z.c.p @ @ @ @ @                                             ",
"                                                      @ @ f C.Z.Z.Z.Z.Z.Z.Z.Z.Z.Z.Z.5.@ @ @ @ @                                             ",
"                                                    @ @ # i.Z.Z.Z.Z.Z.Z.Z.Z.Z.Z.Z.Z.c.< @ @ @ @ @                                           ",
"                                                  @ @ @ q v.Z.Z.Z.Z.Z.Z.Z.Z.Z.Z.Z.Z.Z.h @ @ @ @ @ @                                         ",
"                                                  @ @ < w.C.Z.Z.Z.Z.Z.Z.Z.Z.Z.Z.Z.Z.Z.i.$ @ @ @ @ @                                         ",
"                                                @ @ @ k b.Z.Z.Z.Z.Z.Z.Z.Z.Z.Z.Z.Z.Z.Z.v.f $ < @ @ @ @                                       ",
"                                              @ @ @ , h.Z.Z.Z.Z.Z.Z.Z.Z.Z.Z.Z.Z.Z.Z.Z.C.9.< 0 7 @ @ @ O                                     ",
"                                              @ $ 2 0.Z.Z.Z.Z.Z.Z.Z.Z.Z.Z.Z.Z.Z.Z.Z.Z.Z.b.q $ ,.q @ @ @                                     ",
"                                            @ @ p s c.Z.Z.Z.Z.Z.Z.Z.Z.Z.Z.Z.Z.Z.Z.Z.Z.Z.Z.4.@ 4 9.1 @ @ @                                   ",
"                                            @ < x 5.C.Z.Z.Z.Z.Z.Z.Z.Z.Z.Z.Z.Z.Z.Z.Z.Z.Z.Z.g.@ @ 4.z @ @ @                                   ",
"                                            @ 2.f h.Z.Z.Z.Z.Z.Z.Z.Z.Z.Z.Z.Z.Z.Z.Z.Z.Z.Z.Z.M., @ k q.# @ @                                   ",
"                                          @ @ e.k V.Z.Z.Z.Z.Z.Z.Z.Z.Z.Z.Z.Z.Z.Z.Z.Z.Z.Z.Z.B.9 @ f u.< @ @ @                                 ",
"                                          @ $ w.5.Z.Z.Z.Z.Z.Z.Z.Z.Z.Z.Z.Z.Z.Z.Z.Z.Z.Z.Z.Z.V.d @ ,.e., @ @ @                                 ",
"                                          @ 2 u.i.Z.Z.Z.Z.Z.Z.Z.Z.Z.Z.Z.Z.Z.Z.Z.Z.Z.Z.Z.Z.V.k # i.6.# @ @ @                                 ",
"                                        @ @ 4 h.c.Z.Z.Z.Z.Z.Z.Z.Z.Z.Z.Z.Z.Z.Z.Z.Z.Z.Z.Z.Z.V.x 0 z.,.@ @ @ @                                 ",
"                                        - - * i.Z.Z.Z.Z.Z.Z.Z.Z.Z.Z.Z.Z.Z.Z.Z.Z.Z.Z.Z.Z.Z.V.2.u.c.7 @ @ @ @                                 ",
"                                        T T m r z.Z.Z.Z.Z.Z.Z.Z.Z.Z.Z.Z.Z.Z.Z.Z.Z.Z.Z.Z.Z.C.g.v.q.@ @ @ @ O                                 ",
"                                       . . .` v d l.Z.Z.Z.Z.Z.Z.Z.Z.Z.Z.Z.Z.Z.Z.Z.Z.Z.d.=.:.q.l a 6 2 + &                                   ",
"                                     . . . . .) : 9 i.Z.Z.Z.Z.Z.Z.Z.Z.Z.Z.Z.Z.Z.Z.Z.Z.-. . .H u u u p G `  .                                ",
"                                   . . . . . . .E - 4 y.V.Z.Z.Z.Z.Z.Z.Z.Z.Z.Z.Z.Z.Z.Z.+. . .} u u i D )  . .                                ",
"                             . . . . . . . . . .) V & 1 4.m.Z.Z.Z.Z.Z.Z.Z.Z.Z.Z.Z.Z.Z.o. . .[ M y H _  . . . .                              ",
"                           . . . . . . . . . . . ._ : @ # x c.Z.Z.Z.Z.Z.Z.Z.Z.Z.Z.Z.Z.o. . . . . . . . . . . .                              ",
"                           . . . . . . . . . . . . .E + @ # ,.N.Z.Z.Z.Z.Z.Z.Z.Z.Z.Z.Z.O. . . . . . . . . . . .                              ",
"                             . . . . . . . . . . . . .m + @ p x.Z.Z.Z.Z.Z.Z.Z.Z.Z.Z.Z.X. . . . . . . . . . . . . .                          ",
"                             . . . . . . . . . . . . .Q = q r.V.Z.Z.Z.Z.Z.Z.Z.Z.Z.C.s. . . . . . . . . . . . . . . .                        ",
"                             . . . . . . . . . . . . .' S j b.Z.Z.Z.Z.Z.Z.Z.Z.C.m.5.t '  . . . . . . . . . . . . . .                        ",
"                             . . . . . . . . . . . . . . .n q w.z.B.Z.Z.Z.m.h.6.7 @ >  . . . . . . . . . . . . . .                          ",
"                           . . . . . . . . . . . . . . . .Q - $ e z 2.4.1.k 7 # @ @ N  . . . . . . . . . . . . .                            ",
"                           . . . . . . . . . . . . . . . .( b @ @ @ # # # @ @ @ @ @ Z  . . . . . . . . . . .                                ",
"                           . . . . . . . . . . . . . . . .) m @ @ @ @ @ @ @ @ @ @ @ A  . . . . . . . . . .                                  ",
"                                 . . . . . . . . . . . . . .Y                       T  . . . . . . . .                                      ",
"                                         . . . . . . . . . .                           . . . . . . .                                        ",
"                                               . . . . . . .                           . . . . . .                                          ",
"                                                     .                                                                                      ",
"                                                                                                                                            ",
"                                                                                                                                            ",
"                                                                                                                                            ",
"                                                                                                                                            ",
"                                                                                                                                            ",
"                                                                                                                                            ",
"                                                                                                                                            ",
"                                                                                                                                            "
};
