/* XPM */
static char *tux_8[] = {
/* columns rows colors chars-per-pixel */
"80 80 164 2 ",
"   c None",
".  c #212121",
"X  c #2C2C2C",
"o  c #263237",
"O  c #2B3537",
"+  c #263238",
"@  c #29353B",
"#  c #2C383E",
"$  c #303030",
"%  c #343B35",
"&  c #3B3D35",
"*  c #3C3C3C",
"=  c #3F4233",
"-  c #53502E",
";  c #414536",
":  c #514A34",
">  c #655B2A",
",  c #645D32",
"<  c #6F6227",
"1  c #766727",
"2  c #776825",
"3  c #7B6B27",
"4  c #72693B",
"5  c #2E3B40",
"6  c #323D43",
"7  c #364146",
"8  c #374248",
"9  c #3B464B",
"0  c #3E494E",
"q  c #494A4A",
"w  c #464A43",
"e  c #424D52",
"r  c #465056",
"t  c #4A555A",
"y  c #4F595E",
"u  c #40535C",
"i  c #535755",
"p  c #53615D",
"a  c #78774C",
"s  c #455A64",
"d  c #495C62",
"f  c #535D62",
"g  c #566065",
"h  c #5A6264",
"j  c #5B656A",
"k  c #5F686D",
"l  c #5E6C72",
"z  c #666868",
"x  c #626761",
"c  c #6F786C",
"v  c #646D72",
"b  c #687176",
"n  c #6C757A",
"m  c #677075",
"M  c #717A7E",
"N  c #9A7E1E",
"B  c #816E24",
"V  c #8B7521",
"C  c #827C45",
"Z  c #847442",
"A  c #AF8205",
"S  c #BC8D05",
"D  c #BF9006",
"F  c #A4851C",
"G  c #A8871B",
"H  c #AB8A19",
"J  c #B38F18",
"K  c #B79015",
"L  c #BD9516",
"P  c #95833A",
"I  c #AD922C",
"U  c #B8992C",
"Y  c #C39205",
"T  c #CE9D0B",
"R  c #D39E06",
"E  c #C79B13",
"W  c #D5A006",
"Q  c #DEA806",
"!  c #DBA60A",
"~  c #CEA112",
"^  c #DAA910",
"/  c #D5A615",
"(  c #E1AE0D",
")  c #E6AD06",
"_  c #EDB306",
"`  c #E6B00D",
"'  c #EEB50B",
"]  c #F6BA07",
"[  c #FABD07",
"{  c #F3BA0C",
"}  c #FABE08",
"|  c #F0B608",
" . c #E9B414",
".. c #F3BC16",
"X. c #C59E25",
"o. c #CCA521",
"O. c #EDBA24",
"+. c #FFC107",
"@. c #FEC109",
"#. c #FEC313",
"$. c #FDC51D",
"%. c #FDC620",
"&. c #FCC82A",
"*. c #FCC931",
"=. c #BDA455",
"-. c #8F8964",
";. c #91907C",
":. c #DBBB51",
">. c #FACC40",
",. c #F8CD49",
"<. c #F9D155",
"1. c #F8D25B",
"2. c #F6D778",
"3. c #F6D87C",
"4. c #F6D773",
"5. c #757D82",
"6. c #7A8286",
"7. c #7D868A",
"8. c #80878C",
"9. c #81898D",
"0. c #848C90",
"q. c #899195",
"w. c #8E969A",
"e. c #92979A",
"r. c #949B9E",
"t. c #A3A08A",
"y. c #B0A785",
"u. c #969DA1",
"i. c #999FA3",
"p. c #9CA1A4",
"a. c #9EA5A8",
"s. c #A1A7AA",
"d. c #A3A9AC",
"f. c #ABAEB1",
"g. c #A3AEB3",
"h. c #ACB2B5",
"j. c #AFB5B8",
"k. c #B1B7BA",
"l. c #B3B9BC",
"z. c #B8B9B8",
"x. c #D2C292",
"c. c #F1E2AD",
"v. c #F1E4B7",
"b. c #B9BEC1",
"n. c #BDC2C5",
"m. c #C2C5C6",
"M. c #C2C7CA",
"N. c #C4C9CC",
"B. c #DEDAC7",
"V. c #C9CED0",
"C. c #CED2D5",
"Z. c #D2D6D9",
"A. c #D6DADC",
"S. c #D5D9DB",
"D. c #EFE8CD",
"F. c #F0E6C3",
"G. c #EEEAD9",
"H. c #DBDFE1",
"J. c #DEE2E4",
"K. c #E0E4E6",
"L. c #E3E7E9",
"P. c #E5E8EA",
"I. c #EAEDEE",
"U. c #ECEFF1",
/* pixels */
"                                                                                                                                                                ",
"                                                                                                                                                                ",
"                                                                                                                                                                ",
"                                                                                                                                                                ",
"                                                                                                                                                                ",
"                                                                                                                                                                ",
"                                                                                                                                                                ",
"                                                                                                                                                                ",
"                                                                                                                                                                ",
"                                                                                                                                                                ",
"                                                                            o o + + + +                                                                         ",
"                                                                        + + + + + + + + + +                                                                     ",
"                                                                    + + + + + + + + + + + + + +                                                                 ",
"                                                                    + + + + + + + + + + + + + + +                                                               ",
"                                                                  + + + + + + + + + + + + + + + +                                                               ",
"                                                                  + + + + + + + + + + + + + + + + +                                                             ",
"                                                                  + + + + + + + + + + + + + + + + o                                                             ",
"                                                                  + + + + + + + + + @ 6 @ + + + + +                                                             ",
"                                                                + + + r r @ + + + 0 w.k.i.6 + + + + o                                                           ",
"                                                                + + j Z.N.v + + 6 w.P.U.P.r.+ + + + o                                                           ",
"                                                                + 6 M.z.m.j.e + r A.n.p.Z.S.t + + + +                                                           ",
"                                                                  y C.X i h.f + g m.q . z H.b + + + o                                                           ",
"                                                                  f N.. * e.g + g f.X . $ H.b + + + o                                                           ",
"                                                                  9 V.w : =.U G P y.& . q Z.t + + + +                                                           ",
"                                                                  @ q.x./ ^ ' [ T ..X.Z z.p.@ + + + +                                                           ",
"                                                                  % B } } [ +.+._ +.+.+.' F ; + + + +                                                           ",
"                                                                  V ' +.+.+.+.+.+.+.| R S ' V + + + +                                                           ",
"                                                                  K W ] +.+.+.+.] R S S ) { P + + + + +                                                         ",
"                                                                  < E D Y R W Y A Y Q ] +.,.t.@ + + + +                                                         ",
"                                                                  O -.O.! Y Y W _ ] +.%.3.G.n.r + + + + +                                                       ",
"                                                                  + 8.D.>.#.@.+.#.&.2.G.U.U.J.5.+ + + + +                                                       ",
"                                                                + + w.U.D.3.1.<.3.F.I.U.U.U.U.d.8 + + + + +                                                     ",
"                                                                + + h.U.U.U.U.U.U.U.U.U.U.U.U.C.f + + + + +                                                     ",
"                                                              + + 9 C.U.U.U.U.U.U.U.U.U.U.U.U.I.9.# + + + + +                                                   ",
"                                                            + + + M J.U.U.U.U.U.U.U.U.U.U.U.U.U.n.9 + + + + + +                                                 ",
"                                                          + + + 7 k.U.U.U.U.U.U.U.U.U.U.U.U.U.U.U.v + + + + + + +                                               ",
"                                                          + + @ n A.U.U.U.U.U.U.U.U.U.U.U.U.U.U.U.k.+ + + + + + +                                               ",
"                                                        + + + 0 h.U.U.U.U.U.U.U.U.U.U.U.U.U.U.U.U.P.e + + + + + + o                                             ",
"                                                      + + + @ 5.J.U.U.U.U.U.U.U.U.U.U.U.U.U.U.U.U.U.r.@ 8 5 + + + +                                             ",
"                                                      + o + r C.U.U.U.U.U.U.U.U.U.U.U.U.U.U.U.U.U.U.C.t 6 k 8 + + + o                                           ",
"                                                    + + 7 5 b.U.U.U.U.U.U.U.U.U.U.U.U.U.U.U.U.U.U.U.P.e.@ 7 w.9 + + + +                                         ",
"                                                    + 8 0 v U.U.U.U.U.U.U.U.U.U.U.U.U.U.U.U.U.U.U.U.U.n.e + f i.6 + + +                                         ",
"                                                  o + j t k.U.U.U.U.U.U.U.U.U.U.U.U.U.U.U.U.U.U.U.U.U.A.m + + d.v + + +                                         ",
"                                                  + 0 n b S.U.U.U.U.U.U.U.U.U.U.U.U.U.U.U.U.U.U.U.U.U.P.7.+ + 6.p.+ + + +                                       ",
"                                                o + k 9.w.L.U.U.U.U.U.U.U.U.U.U.U.U.U.U.U.U.U.U.U.U.U.U.i.5 + v k.6 + + +                                       ",
"                                                + + M 0.k.U.U.U.U.U.U.U.U.U.U.U.U.U.U.U.U.U.U.U.U.U.U.U.h.9 + n l.8 + + +                                       ",
"                                                + @ 7.r.N.U.U.U.U.U.U.U.U.U.U.U.U.U.U.U.U.U.U.U.U.U.U.U.k.e + q.k.6 + + + +                                     ",
"                                              + + # w.h.Z.U.U.U.U.U.U.U.U.U.U.U.U.U.U.U.U.U.U.U.U.U.U.U.b.r @ M.s.@ + + + +                                     ",
"                                              + + 5 a.A.K.U.U.U.U.U.U.U.U.U.U.U.U.U.U.U.U.U.U.U.U.U.U.U.M.t g J.9.+ + + + +                                     ",
"                                              + + # q.U.U.U.U.U.U.U.U.U.U.U.U.U.U.U.U.U.U.U.U.U.U.U.U.U.M.g l.A.g + + + + +                                     ",
"                                              L ~ 2 i b.I.U.U.U.U.U.U.U.U.U.U.U.U.U.U.U.U.U.U.U.U.U.U.U.M.k.K.j.@ + + + +                                       ",
"                                            +.+.+.| V x b.I.U.U.U.U.U.U.U.U.U.U.U.U.U.U.U.U.U.U.U.I.c.c.B.n.g.l 7 5 @ + O                                       ",
"                                          +.+.+.+.+.` 1 g j.U.U.U.U.U.U.U.U.U.U.U.U.U.U.U.U.U.U.U.v.$.#.:.c s s s 0 w 1 N                                       ",
"                                          +.+.+.+.+.+.~ - e f.I.U.U.U.U.U.U.U.U.U.U.U.U.U.U.U.U.U.4.+.+.{ a s s s p I ' +.+.                                    ",
"                                        +.+.+.+.+.+.+.[ G % 0 r.P.U.U.U.U.U.U.U.U.U.U.U.U.U.U.U.U.1.+.+.+.C s s d P { +.+.+.                                    ",
"                                +.+.+.+.+.+.+.+.+.+.+.+.[ 2 + # M C.I.U.U.U.U.U.U.U.U.U.U.U.U.U.U.<.+.+.+.o.C a U { +.+.+.+.                                    ",
"                              +.+.+.+.+.+.+.+.+.+.+.+.+.+.( = + @ v n.U.U.U.U.U.U.U.U.U.U.U.U.U.U.<.+.+.+.+.+.+.+.+.+.+.+.+.+.                                  ",
"                              +.+.+.+.+.+.+.+.+.+.+.+.+.+.+.F O + + y A.U.U.U.U.U.U.U.U.U.U.U.U.U.,.+.+.+.+.+.+.+.+.+.+.+.+.+.                                  ",
"                                +.+.+.+.+.+.+.+.+.+.+.+.+.+.` > + + + h.U.U.U.U.U.U.U.U.U.U.U.U.U.>.+.+.+.+.+.+.+.@.@.+.+.+.+.+.                                ",
"                                +.+.+.+.+.+.+.+.+.+.+.+.+.+.} L & + @ M.U.U.U.U.U.U.U.U.U.U.U.U.I.*.+.+.+.+.+.+.+.+.@.+.+.+.+.+.+.+.                            ",
"                                +.+.+.+.+.+.+.+.+.+.+.+.+.+.+.] V j M.U.U.U.U.U.U.U.U.U.U.U.I.Z.;. .+.+.+.+.+.+.+.+.+.+.+.+.+.+.+.+.+.                          ",
"                                +.+.+.+.+.+.+.+.+.+.+.+.+.+.+.+.^ 4 r.A.U.U.U.U.U.U.U.U.U.C.s.f , ` +.+.+.+.+.+.+.+.+.+.+.+.+.+.+.+.                            ",
"                              +.+.+.+.+.+.+.+.+.+.+.+.+.+.+.+.+.+.L ; n s.N.L.U.U.U.H.n.i.k 6 + 3 { +.+.+.+.+.+.+.+.+.+.+.+.+.+.+.                              ",
"                              +.+.+.+.+.+.+.+.+.+.+.+.+.+.+.+.+.+.[ 1 + 7 y v 5.6.M k t 6 + + + N [ +.+.+.+.+.+.+.+.+.+.+.+.+.+.                                ",
"                              +.+.+.+.+.+.+.+.+.+.+.+.+.+.+.+.+.+.+.L + + + + @ @ @ + + + + + + H +.+.+.+.+.+.+.+.+.+.+.+.+.                                    ",
"                              +.+.+.+.+.+.+.+.+.+.+.+.+.+.+.+.+.+.+.^ + + + + + + + + + + + + + J +.+.+.+.+.+.+.+.+.+.+.                                        ",
"                                  +.+.+.+.+.+.+.+.+.+.+.+.+.+.+.+.+.( o + + + + + o         o + E +.+.+.+.+.+.+.+.+.+.                                          ",
"                                          +.+.+.+.+.+.+.+.+.+.+.+.+.+.                            +.+.+.+.+.+.+.+.+.                                            ",
"                                                  +.+.+.+.+.+.+.+.+.                              +.+.+.+.+.+.+.                                                ",
"                                                      +.+.+.+.+.+.                                  +.+.+.+.+.                                                  ",
"                                                                                                                                                                ",
"                                                                                                                                                                ",
"                                                                                                                                                                ",
"                                                                                                                                                                ",
"                                                                                                                                                                ",
"                                                                                                                                                                ",
"                                                                                                                                                                ",
"                                                                                                                                                                ",
"                                                                                                                                                                ",
"                                                                                                                                                                "
};
