/* XPM */
static char *ubuntu[] = {
/* columns rows colors chars-per-pixel */
"64 64 134 2 ",
"   c None",
".  c #BB0519",
"X  c #BD0A1E",
"o  c #B90E21",
"O  c #BB1124",
"+  c #BF1729",
"@  c #C3051A",
"#  c #CA061B",
"$  c #C20A1E",
"%  c #CB091E",
"&  c #C30D21",
"*  c #CC0D22",
"=  c #C41327",
"-  c #CD1226",
";  c #C51629",
":  c #CD1529",
">  c #C51B2D",
",  c #CE192D",
"<  c #CF1D30",
"1  c #D02235",
"2  c #D12538",
"3  c #D22B3D",
"4  c #DB6226",
"5  c #DC652A",
"6  c #DF6B32",
"7  c #DF6F38",
"8  c #ED6E2F",
"9  c #F36E2C",
"0  c #F3702F",
"q  c #E26D33",
"w  c #EE6F31",
"e  c #E06F38",
"r  c #E47137",
"t  c #EC7134",
"y  c #E3733B",
"u  c #EC753B",
"i  c #EB783F",
"p  c #F37333",
"a  c #F37639",
"s  c #F4793D",
"d  c #D32F40",
"f  c #D43345",
"g  c #D53748",
"h  c #D63B4C",
"j  c #D74152",
"k  c #D84555",
"l  c #D84857",
"z  c #E17845",
"x  c #ED7C44",
"c  c #E67C48",
"v  c #ED7F49",
"b  c #F47D42",
"n  c #E4A615",
"m  c #EBAB15",
"M  c #EFAE19",
"N  c #F4B114",
"B  c #FDB715",
"V  c #FDB817",
"C  c #F5B31A",
"Z  c #FAB619",
"A  c #FDB91A",
"S  c #EDB32C",
"D  c #FDBC24",
"F  c #F2B72C",
"G  c #F6BA2D",
"H  c #FDBF2E",
"J  c #EDB430",
"K  c #F0B733",
"L  c #F3BA35",
"P  c #FCBF31",
"I  c #FDC134",
"U  c #FDC43D",
"Y  c #FDC33A",
"T  c #ED804B",
"R  c #ED804A",
"E  c #EE814B",
"W  c #F38047",
"Q  c #F48045",
"!  c #F48046",
"~  c #F48147",
"^  c #F28149",
"/  c #F48148",
"(  c #F48149",
")  c #F48249",
"_  c #F4824A",
"`  c #F4834A",
"'  c #F4834B",
"]  c #F5834B",
"[  c #F3844C",
"{  c #F4844C",
"}  c #F4844D",
"|  c #F5854D",
" . c #F4854E",
".. c #F5864F",
"X. c #F58650",
"o. c #F48750",
"O. c #F58751",
"+. c #F58852",
"@. c #F58953",
"#. c #F58C57",
"$. c #F58D59",
"%. c #F58E5A",
"&. c #F68F5B",
"*. c #F68E5B",
"=. c #F6915F",
"-. c #F59160",
";. c #F69363",
":. c #F69463",
">. c #F69464",
",. c #F69565",
"<. c #F69566",
"1. c #F69767",
"2. c #F79B6F",
"3. c #F79C6E",
"4. c #F79C6F",
"5. c #FDC440",
"6. c #FDC542",
"7. c #FDC543",
"8. c #FDC544",
"9. c #FDC645",
"0. c #FDC647",
"q. c #FDC541",
"w. c #FDC748",
"e. c #FDC84C",
"r. c #FDC94D",
"t. c #FDC94E",
"y. c #FDC950",
"u. c #FDCA53",
"i. c #FDCB55",
"p. c #FDCC57",
"a. c #FDCC58",
"s. c #FDCC59",
"d. c #FDCC5A",
"f. c #FDCD5C",
/* pixels */
"                                                                                                  l h h g h k                   ",
"                                                                                                g 1 , , : : < f                 ",
"                                                                                              3 , , , , : : : : 1               ",
"                                                                                            3 , , , , : : : : : : 1             ",
"                                                                                            , , , , , : : : : : : -             ",
"                                                                    >.>.>.>.>.-.          < , , , , : : : : : : - - -           ",
"                                                            :.%.@.` ! b b s s b b ` ..    , , , , , : : : : : : - - -           ",
"                                                      >.#.` b b b b s s s s s s s s s     , , , , , : : : : : - - - -           ",
"                                                  -.O.b b b b b b b s s s s s s s s s       , , , : : : : : : - - -             ",
"                                                    b b b b b b b b s s s s s s s s s       , , , : : : : : - - - -             ",
"                                            u.      x b b b b b b b s s s s s s s s a a       , : : : : : : - - -               ",
"                                        f.9.Y w.      b b b b b b b s s s s s s s s a a       + ; : : : : - - - O               ",
"                                      s.U Y Y Y u.      b b b s s s s s s s s s s a a a a         + ; ; = = O                   ",
"                                    p.U Y Y Y Y 6.      x b b s s s s s s s s s s a a a a a                                     ",
"                                  s.U Y Y Y Y Y Y r.      b b s s s s s s s s s a a a a a a p                                   ",
"                                s.6.U Y Y Y Y Y Y U       i s s s s s s s s s s a a a p a a p p p             ! b s             ",
"                                9.U U Y Y Y Y Y I I w.      s s s s s s s s s a a a a a p p p p p p p p p p p 0 p 0 b           ",
"                              r.U U Y Y Y Y Y Y I I Y       y s s s s s s s s a a a a p p p p p p p p p p p p 0 0 0 9 b         ",
"                            i.U U Y Y Y Y Y Y I I I I 6.      i s u y y 7 7 e r r t a p p p p p p p p p p p p 0 0 9 9 p         ",
"                            9.U U Y Y Y Y Y Y I I I I I r.      y                   q t p p p p p p p p p p p 0 0 9 9 9 a       ",
"                          u.U U U Y Y Y Y Y I I I I I I U                               q t p p p p p p p p p 0 9 9 9 9 9       ",
"                          6.U U Y Y Y Y Y Y I I I I I I I                                 6 t p p p p p p p 0 0 9 9 9 9 9 p     ",
"                        u.U U U Y Y Y Y Y I I I I I I I                                       t p p p p p p 0 9 9 9 9 9 9 9     ",
"                        9.U U Y Y Y Y Y Y I I I I I I                                           p p p p p p 0 9 9 9 9 9 9 9 p   ",
"                        U U U Y Y Y Y Y Y I I I I I                                             q p p p 0 0 9 9 9 9 9 9 9 9 9   ",
"          4.4.2.          U Y Y Y Y Y Y I I I I I I                                               w p p 0 0 9 9 9 9 9 9 9 9 9   ",
"      >.%.O.....@.=.        Y Y Y Y Y Y I I I I I                                                 8 p p 0 9 9 9 9 9 9 9 9 9 9   ",
"    %.......{ ` ` ` ..>.      Y Y Y Y I I I I I I                                                   0 0 0 9 9 9 9 9 9 9 9 9 9 9 ",
"  %.........` ` ` ` ` ..      Y Y Y I I I I I I                                                     8 0 0 9 9 9 9 9 9 9 9 9 9 9 ",
"%.........` ` ` ` ` ` ! ..      Y Y I I I I I I                                                     8 0 9 9 9 9 9 9 9 9 9 9 9 9 ",
"........` ` ` ` ` ` ` ! !       Y Y I I I I I I                                                       5 5 5 5 5 5 4 4 4 4 4 4 4 ",
"........` ` ` ` ` ` ! ! !       Y I I I I I I I                                                                                 ",
"..] ` ` ` ` ` ` ` ! ! ! b       Y I I I I I I I                                                                                 ",
"' ` ..` ` ` ` ` ` ! ! ! b       I I I I I I I I                                                       h h h h g g f f f d 3 3 3 ",
"E ] ..` ` ` ` ` ` ! ! b x       I I I I I I I I                                                     : * * * * % % % % # # # # # ",
"  E ` ` ` ` ` ` ! ! ! b       Y I I I I I I I I                                                     : * * * * % % % % # # # # # ",
"    E ` ` ` ` ` ! ! b z       I I I I I I I I I I                                                   - * * * % % % % # # # # # # ",
"      c v ' ` W x c         I I I I I I I I I I I                                                 1 * * * * % % % % # # # # #   ",
"          z z z           Y I I I I I I I I I I I P                                               , * * * % % % % # # # # # #   ",
"                        Y Y I I I I I I I I I I I P                                             3 * * * * % % % % # # # # # #   ",
"                        L I I I I I I I I I I I P P H                                           - * * * % % % % # # # # # # @   ",
"                        L I I I I I I I I I I I P H H H                                       , * * * * % % % % # # # # # #     ",
"                          L I I I I I I I I I P P H H H H                                 h < * * * * % % % % # # # # # # @     ",
"                          L I I I I I I I I I H H H H H G                               g , * * * * * % % % % # # # # # #       ",
"                            L I I I I I I I P P H H H H S       j                   h 2 - * * * * * % % % % % # # # # # @       ",
"                            K I I I I I I I P H H H H G       3 , 3 g h j j h g d 1 - * * * * * * * % % % % # # # # # #         ",
"                              L I I I I I I P H H H H       g , : : : : : - - - - - - * * * * * * * % % % % # # # # # .         ",
"                                P I I I I P H H H H F       1 : : : : : - - - - - - * * * * * * * $ $ X X @ @ # # # @           ",
"                                J P I I P P H H H H       3 : : : : : : - - - - - - * * * * * $ X             . @ @             ",
"                                  J P I P H H H H F       < : : : : : : - - - - - - * * * * o                                   ",
"                                    J P P H H H G       2 : : : : : : - - - - - - * * * * o                                     ",
"                                      S H H H H S       , : : : : : : - - - - - - * * * &         6.I H H I U                   ",
"                                        S G H G       < : : : : : : - - - - - * * * * &       9.H A A A A A A D U               ",
"                                            F       1 , : : : : : : - - - - - * * * * &       D A A A A A A A A A               ",
"                                                    , , : : : : : - - - - - - * * * *       D A A A A A A A A V V A             ",
"                                                  > , : : : : : : - - - - - * * * * *       A A A A A A A A A V V V             ",
"                                                      ; ; : : : - - - - - - * * * * *     A A A A A A A A A A V V B B           ",
"                                                            = = = - - - - * * * * & &     A A A A A A A A A V V V B B           ",
"                                                                    O O O o o o           A A A A A A A A V V V V B B           ",
"                                                                                            A A A A A A A V V V B B             ",
"                                                                                            C A A A A A A V V V B N             ",
"                                                                                              C A A A A V V V B N               ",
"                                                                                                M Z A A V V Z m                 ",
"                                                                                                  n m m m m n                   "
};
